# xmcd CD database file
#
# Track frame offsets:
#	150
#	15542
#	29768
#	40942
#	59156
#	72999
#	84864
#	95852
#	111737
#	125318
#	138355
#	148639
#	161606
#	173849
#
# Disc length: 2558 seconds
#
# Revision: 2
# Processed by: cddbd v1.4b41PL1 Copyright (c) Steve Scherf et al.
# Submitted via: Feurio! 1.54ß - http://www.feurio.com
#
DISCID=ce09fc0e
DTITLE=K. J. Spannhoff - Stringtime
DYEAR=1900
DGENRE=
TTITLE0=K.J. Spannhoff - Your song
TTITLE1=K.J. Spannhoff - Imagine
TTITLE2=K.J. Spannhoff - Sealed with a kiss
TTITLE3=K.J. Spannhoff - Baker street
TTITLE4=K.J. Spannhoff - Can't help falling in love
TTITLE5=K.J. Spannhoff - Far, far away
TTITLE6=K.J. Spannhoff - Layla
TTITLE7=K.J. Spannhoff - Only you
TTITLE8=K.J. Spannhoff - Wonderful tonight
TTITLE9=K.J. Spannhoff - Something
TTITLE10=K.J. Spannhoff - L'echo des savanes
TTITLE11=K.J. Spannhoff - Love is all around
TTITLE12=K.J. Spannhoff - And I love her
TTITLE13=K.J. Spannhoff - White nights in Salzburg
EXTD=
EXTT0=
EXTT1=
EXTT2=
EXTT3=
EXTT4=
EXTT5=
EXTT6=
EXTT7=
EXTT8=
EXTT9=
EXTT10=
EXTT11=
EXTT12=
EXTT13=
PLAYORDER=
